<svg xmlns="http://www.w3.org/2000/svg" width="35" height="35.014" viewBox="0 0 35 35.014"><defs><style>.a{fill:#fc5959;}</style></defs><path class="a" d="M6538.5,6728.945a17.1,17.1,0,0,0-4.872-9.187,16.8,16.8,0,0,0-8.8-4.718,17.1,17.1,0,0,0-14.261,3.344,16.638,16.638,0,0,0-6.387,10.272,17.086,17.086,0,0,0,4.875,16.013,16.889,16.889,0,0,0,8.743,4.675c.747.157,1.51.233,2.266.346h2.5c.666-.1,1.335-.184,2-.307a17.529,17.529,0,0,0,13.906-13.68c.131-.621.18-1.259.27-1.889.018-.126.05-.25.076-.375v-2.5C6538.7,6730.274,6538.62,6729.606,6538.5,6728.945Zm-17.2,18.243a15,15,0,1,1,15-14.994A15.051,15.051,0,0,1,6521.3,6747.188Zm6.19-19.359-4.372,4.368,4.361,4.363-1.789,1.786-4.369-4.377-4.385,4.393-1.786-1.786,4.376-4.373-4.393-4.384,1.787-1.788,4.367,4.375,4.391-4.388Z" transform="translate(-6503.804 -6714.676)"/></svg>