<svg xmlns="http://www.w3.org/2000/svg" width="80.116" height="74.522" viewBox="0 0 80.116 74.522"><defs><style>.a{fill:#4285c2;}</style></defs><path class="a" d="M-1591.847,2240.689c-1.742.243-3.525.2-5.288.284l0-.08c-1.17,0-2.341.028-3.509-.006a3.306,3.306,0,0,1-3.351-3.693,3.265,3.265,0,0,1,3.472-3.31,76.35,76.35,0,0,0,7.74-.183,13.225,13.225,0,0,0,11.691-14.07,13.068,13.068,0,0,0-10.7-11.959,13.008,13.008,0,0,0-2.347-.222,3.784,3.784,0,0,1-4.037-3.335c-1.536-7.222-6.653-12.177-13.984-13.1a16.146,16.146,0,0,0-18.139,12.9c-.466,2.421-1.721,3.481-4.206,3.525a13.317,13.317,0,0,0-12.965,14.057,13.257,13.257,0,0,0,13.218,12.393c1.985.022,3.971,0,5.957.006a3.225,3.225,0,0,1,3.4,3.033c.142,2.2-.959,3.845-2.994,3.9-3.847.108-7.716.362-11.523-.589a20.521,20.521,0,0,1-14.887-16.629c-1.637-11.273,6.6-20.869,16.791-22.686a1.109,1.109,0,0,0,1-.857c3.122-9.236,9.69-14.57,19.154-16.031,7.293-1.126,13.723,1.341,19.155,6.3a21.945,21.945,0,0,1,6.208,9.8.967.967,0,0,0,.888.771,20.255,20.255,0,0,1,16.515,16.908A20.192,20.192,0,0,1-1591.847,2240.689Zm-9.577-14.923a3.391,3.391,0,0,0-.238-4.891c-3.376-3.395-6.81-6.732-10.129-10.179a3.657,3.657,0,0,0-5.177-.07q-5.258,5.184-10.438,10.448a3.339,3.339,0,0,0,.13,4.883,3.334,3.334,0,0,0,4.818-.045c1.271-1.228,2.5-2.5,3.757-3.744.186-.185.388-.354.707-.644.019.441.043.727.043,1.013q0,12.526,0,25.052c0,2.637-.027,5.278.105,7.91a3.106,3.106,0,0,0,3.349,2.792,3.232,3.232,0,0,0,3.472-2.77,15.312,15.312,0,0,0,.088-1.953q0-15.587,0-31.173c0-.248.025-.5.046-.9.355.337.573.536.781.744,1.252,1.248,2.483,2.519,3.759,3.741A3.339,3.339,0,0,0-1601.423,2225.766Z" transform="translate(1654.51 -2183.77)"/></svg>