<svg xmlns="http://www.w3.org/2000/svg" width="16.612" height="9" viewBox="0 0 16.612 9"><defs><style>.a{fill:#bfbfbf;}</style></defs><path class="a" d="M-1554.945,754.7a.282.282,0,0,0,.035-.048.692.692,0,0,1,1.174-.233c.7.691,1.392,1.388,2.088,2.083l4.908,4.9c.03.03.063.056.136.121a1.023,1.023,0,0,1,.111-.167q3.455-3.455,6.913-6.907a.712.712,0,0,1,.728-.237.692.692,0,0,1,.339,1.135c-.036.04-.076.077-.114.115l-7.442,7.432a.713.713,0,0,1-1.149,0q-3.674-3.671-7.347-7.343a4.743,4.743,0,0,1-.38-.491Z" transform="translate(1554.945 -754.181)"/></svg>