<svg xmlns="http://www.w3.org/2000/svg" width="23.299" height="23.303" viewBox="0 0 23.299 23.303"><defs><style>.a{fill:#3e4855;}</style></defs><path class="a" d="M309.6,4227.436h-8.276a3.343,3.343,0,0,1-3.3-3.292c0-5.449,0-11.069,0-16.7a3.345,3.345,0,0,1,3.3-3.294h8.353c.823,0,1.661,0,2.471.006s1.649.006,2.475.006c1.288,0,2.346-.007,3.33-.023H318a3.506,3.506,0,0,1,3.273,2.7,3.364,3.364,0,0,1,.046.617c0,5.542,0,11.151,0,16.674a3.358,3.358,0,0,1-3.315,3.309Zm4.961-1.472h3.37c1.414,0,1.915-.5,1.915-1.906q0-8.268,0-16.534c0-1.409-.5-1.908-1.914-1.908h-16.51a2.059,2.059,0,0,0-1.5.425,2.034,2.034,0,0,0-.429,1.5q0,8.252,0,16.505a1.6,1.6,0,0,0,1.928,1.921h13.139Zm-4.876-4.588a.812.812,0,0,1-.225-.033.75.75,0,0,1-.525-.787c0-.669,0-1.351,0-2.01q0-.428,0-.855v-1.166h-2.771c-.5,0-.9,0-1.282-.006a.822.822,0,0,1-.666-.309.713.713,0,0,1-.1-.638.764.764,0,0,1,.793-.521q.578,0,1.156,0h2.869v-.854q0-.473,0-.946c0-.741,0-1.507,0-2.26a.734.734,0,0,1,1.3-.517.841.841,0,0,1,.169.585q0,1.141,0,2.282v1.671l.46.022.107.006c.08,0,.156.009.238.01H313.1q.659,0,1.318,0a.737.737,0,0,1,.818.595.729.729,0,0,1-.123.58.622.622,0,0,1-.433.266c-.285.028-.577.032-.825.032h-.69c-.3,0-.605,0-.909,0h-1.816l-.021.462c0,.041,0,.078-.006.114,0,.08-.009.155-.009.235q0,.535,0,1.069c0,.71,0,1.443,0,2.164A.746.746,0,0,1,309.686,4221.376Z" transform="translate(-298.021 -4204.133)"/></svg>